<svg width="120" height="40" viewBox="0 0 120 40" fill="none" xmlns="http://www.w3.org/2000/svg">
<path d="M65.3993 25.6912C65.3993 17.4643 71.4687 11.3823 79.5203 11.3823C87.5719 11.3823 93.5846 17.512 93.5846 25.6912C93.5846 33.8704 87.5625 40.0001 79.4637 40.0001C71.3648 40.0001 65.3993 33.9753 65.3993 25.6912ZM89.3842 25.6912C89.3842 19.6664 85.2876 15.1573 79.4731 15.1573C73.6586 15.1573 69.6092 19.7141 69.6092 25.6912C69.6092 31.6683 73.7058 36.225 79.4731 36.225C85.2404 36.225 89.3842 31.7732 89.3842 25.6912Z" fill="url(#paint0_linear_3046_242)"/>
<path d="M5.857 31.0868V15.5672H0.769287V12.0591H4.81869C5.54551 12.0591 6.12129 11.5825 6.12129 10.6959V4.14681H9.96303V12.0591H18.2695V15.5672H9.96303V31.0296C9.96303 33.9657 11.058 35.6911 14.1635 35.6911H17.9014V39.3041H13.9086C8.92473 39.3041 5.86644 36.5777 5.86644 31.0772L5.857 31.0868ZM22.4133 25.6911C22.4133 16.9876 28.275 11.3823 35.647 11.3823C43.8496 11.3823 48.7297 17.4643 48.7297 25.3289V27.1592H26.7176C26.9252 32.612 30.3988 36.225 35.9585 36.225C39.5359 36.225 42.9624 34.4995 44.2083 31.2965H48.4654C46.9646 36.3775 42.2355 40 35.9019 40C27.652 40 22.4039 33.8704 22.4039 25.6911H22.4133ZM44.3782 23.489C44.0101 18.0362 40.225 15.1573 35.6564 15.1573C31.0879 15.1573 27.2462 18.4557 26.8308 23.489H44.3782ZM54.4498 33.4986V0H58.5464V33.4986C58.5464 34.8618 59.2166 35.6435 60.5192 35.6435H61.7652V39.3136H59.7924C56.4132 39.3136 54.4404 37.2164 54.4404 33.4986H54.4498ZM98.2664 31.4013H102.269C102.731 34.6521 105.015 36.3775 108.961 36.3775C112.907 36.3775 115.238 34.3851 115.238 31.6111C115.238 23.9562 99.0971 29.7807 99.0971 18.98C99.0971 14.3661 103.194 11.3823 108.857 11.3823C113.841 11.3823 117.994 14.3184 118.41 19.2469H114.464C114.105 16.673 112.18 14.9476 108.602 14.9476C105.223 14.9476 103.052 16.6254 103.052 18.98C103.052 25.9009 119.25 20.1335 119.25 31.4013C119.25 36.5396 115.04 40 108.763 40C102.486 40 98.7478 36.4919 98.2759 31.4013H98.2664Z" fill="white"/>
<defs>
<linearGradient id="paint0_linear_3046_242" x1="69.1693" y1="15.6001" x2="88.3693" y2="40.0001" gradientUnits="userSpaceOnUse">
<stop stop-color="#00F2FE"/>
<stop offset="0.535" stop-color="#4FACFE"/>
<stop offset="0.975" stop-color="#C471F5"/>
</linearGradient>
</defs>
</svg>
