<svg width="120" height="40" viewBox="0 0 120 40" fill="none" xmlns="http://www.w3.org/2000/svg">
<g clip-path="url(#clip0_3046_243)">
<path d="M65.4694 25.6912C65.4694 17.4643 71.6176 11.3823 79.7737 11.3823C87.9299 11.3823 94.0208 17.512 94.0208 25.6912C94.0208 33.8704 87.9204 40.0001 79.7164 40.0001C71.5124 40.0001 65.4694 33.9753 65.4694 25.6912ZM89.7658 25.6912C89.7658 19.6664 85.616 15.1573 79.7259 15.1573C73.8359 15.1573 69.7339 19.7141 69.7339 25.6912C69.7339 31.6683 73.8837 36.225 79.7259 36.225C85.5682 36.225 89.7658 31.7732 89.7658 25.6912Z" fill="white"/>
<path d="M5.15378 31.0868V15.5672H0V12.0591H4.10199C4.83825 12.0591 5.42151 11.5825 5.42151 10.6959V4.14681H9.31315V12.0591H17.7275V15.5672H9.31315V31.0296C9.31315 33.9657 10.4223 35.6911 13.5681 35.6911H17.3546V39.3041H13.31C8.26135 39.3041 5.16335 36.5777 5.16335 31.0772L5.15378 31.0868ZM21.9251 25.6911C21.9251 16.9876 27.8629 11.3823 35.3307 11.3823C43.6398 11.3823 48.5833 17.4643 48.5833 25.3289V27.1592H26.2853C26.4956 32.612 30.0143 36.225 35.6462 36.225C39.2701 36.225 42.741 34.4995 44.0032 31.2965H48.3155C46.7952 36.3775 42.0048 40 35.5888 40C27.2319 40 21.9155 33.8704 21.9155 25.6911H21.9251ZM44.1753 23.489C43.8024 18.0362 39.9681 15.1573 35.3402 15.1573C30.7123 15.1573 26.8207 18.4557 26.4 23.489H44.1753ZM54.3777 33.4986V0H58.5275V33.4986C58.5275 34.8618 59.2064 35.6435 60.5259 35.6435H61.7881V39.3136H59.7896C56.3665 39.3136 54.3681 37.2164 54.3681 33.4986H54.3777ZM98.7633 31.4013H102.818C103.286 34.6521 105.6 36.3775 109.597 36.3775C113.594 36.3775 115.955 34.3851 115.955 31.6111C115.955 23.9562 99.6048 29.7807 99.6048 18.98C99.6048 14.3661 103.755 11.3823 109.492 11.3823C114.54 11.3823 118.747 14.3184 119.168 19.2469H115.171C114.808 16.673 112.857 14.9476 109.233 14.9476C105.81 14.9476 103.611 16.6254 103.611 18.98C103.611 25.9009 120.019 20.1335 120.019 31.4013C120.019 36.5396 115.755 40 109.396 40C103.037 40 99.251 36.4919 98.7729 31.4013H98.7633Z" fill="white"/>
</g>
<defs>
<clipPath id="clip0_3046_243">
<rect width="120" height="40" fill="white"/>
</clipPath>
</defs>
</svg>
