<svg width="760" height="407" viewBox="0 0 760 407" fill="none" xmlns="http://www.w3.org/2000/svg">
<g clip-path="url(#clip0_903_379)">
<path d="M411.729 97.005C409.035 100.649 407.104 102.59 406.915 106.687C406.476 116.152 409.411 112.473 414.365 113.463C419.119 114.415 421.345 113.141 426.647 114.877C429.825 115.919 434.398 119.118 437.661 117.92C445.897 114.895 438.226 104.785 431.861 103.077C428.144 102.08 423.63 104.009 420.647 102.667C415.472 100.342 421.662 94.6268 411.729 97.005Z" fill="black" fill-opacity="0.1"/>
<path d="M447.521 98.923C445.543 105.775 450.332 104.63 452.905 109.231C455.87 114.534 452.836 114.055 453.936 120.228C454.922 125.766 464.941 132.49 470.85 126.087C468.708 122.997 463.337 117.864 462.541 114.102C461.392 108.674 466.363 105.563 459.185 101.799C460.131 101.278 460.831 100.302 461.658 99.5609C462.032 99.2254 461.962 98.6205 461.515 98.3911C455.179 95.1256 454.562 95.4023 447.521 98.923Z" fill="black" fill-opacity="0.1"/>
<path d="M420.673 155.808C422.679 158.635 426.544 162.502 427.482 165.894C428.822 170.742 427.029 172.841 429.418 176.819C431.444 180.189 435.656 181.827 437.529 185.314C440.409 190.666 438.637 195.011 444.063 198.951C448.936 184.606 441.844 180.953 436.661 169.139C435.902 167.412 437.049 164.8 436.295 162.995C435.118 160.178 431.64 156.322 429.606 154.171C426.096 150.459 419.963 145.187 420.673 155.808Z" fill="black" fill-opacity="0.1"/>
<path d="M335.03 135.035C342.705 133.539 358.257 126.702 365.569 132.264C368.763 134.693 368.626 139.137 372.091 141.636C376.636 144.913 383.719 145.969 388.411 144.729C392.462 143.657 394.713 141.28 398.876 140.674C405.063 139.772 412.61 141.581 418.906 141.997C423.615 142.308 428.819 144.189 432.341 140.468C434.985 137.675 435.096 132.754 430.264 130.241C426.517 128.293 418.31 133.045 414.067 132.196C408.506 131.082 407.506 125.383 402.56 122.232C395.233 117.563 386.711 121.537 378.58 115.671C368.459 108.367 361.943 107.775 353.241 117.304C349.292 121.628 347.605 123.377 343.159 126.028C339.976 127.927 329.194 128.793 335.03 135.035Z" fill="black" fill-opacity="0.1"/>
<path d="M134.709 92.8506C131.973 94.5909 123.4 97.8937 122.14 100.841C119.832 106.234 124.543 111.334 129.906 109.15C133.733 107.59 133.188 98.7767 136.627 97.3246C141.073 95.4495 142.89 98.0815 142.287 101.847C141.748 105.21 131.753 109.231 138.224 113.304C145.296 117.754 144.711 106.02 145.575 105.08C146.88 103.658 148.412 97.0837 152.605 102.543C155.935 106.879 148.375 113.621 158.358 113.304C160.123 106.245 162.57 101.016 154.737 96.6852C149.596 93.8454 140.532 93.9659 134.709 92.8506Z" fill="black" fill-opacity="0.1"/>
<g opacity="0.5">
<path d="M33.6604 67.4926C33.4577 67.566 33.2559 67.6581 33.0677 67.7633C23.4588 73.1312 14.1295 77.7305 4.12818 82.0247C1.05286 83.345 -1.4836 79.3483 1.01085 77.1178C2.6409 75.6599 5.17335 74.5303 7.14558 72.8775C12.273 68.5784 11.2688 64.7236 14.8153 60.2539C16.3576 58.3115 20.0532 58.0764 21.5914 56.1297C22.8513 54.5356 22.0951 50.9848 23.4081 49.567C26.3739 46.3674 23.385 47.9071 27.3971 45.4472C30.1042 43.7886 34.5122 44.8221 37.105 42.9987C40.9272 40.308 42.3071 34.1941 46.2027 31.6353C49.9354 29.1839 56.6061 28.9746 60.974 28.9159C73.7055 28.7438 84.6503 34.9667 97.3003 33.9805C102.341 33.5877 106.349 32.2803 111.283 31.4044C118.01 30.2103 119.937 31.5034 126.565 33.9905C130.148 35.3337 135.006 40.9058 136.48 32.0954C137.522 25.8582 128.473 24.0003 137.592 18.6992C149.328 11.8785 155.541 27.2859 165.974 28.6162C181.468 30.5902 172.143 9.91607 183.832 10.7246C189.915 11.146 192.215 18.4555 198.571 16.473C203.6 14.9047 204.272 9.62075 209.395 6.96588C218.632 2.18081 230.153 3.07389 240.715 3.52258C242.428 3.59426 242.944 5.8836 241.427 6.68493C233.989 10.607 226.741 14.5305 219.748 18.2419C205.237 25.9427 219.988 29.1968 225.723 37.256C232.405 46.6441 224.53 52.7366 213.991 50.5175C205.138 48.6525 209.714 47.0627 203.365 42.0382C199.187 38.7326 193.774 40.4786 189.23 41.1509C180.286 42.474 167.654 44.9139 163.714 54.4425C161.672 59.3809 163.292 64.7437 166.231 68.0494C171.387 73.8508 174.14 71.4024 179.716 66.9656C183.135 64.2463 185.807 59.8081 189.762 58.237C198.504 54.7636 199.127 59.616 204.891 63.7703C212.933 69.566 225.865 63.6872 227.655 75.8878C228.163 79.3484 226.12 83.1342 226.463 86.622C226.725 89.2984 229.006 91.9518 229.088 94.5722C229.254 99.892 227.595 105.186 221.58 104.036C214.024 102.591 218.31 95.193 213.591 90.934C211.452 89.0021 206.374 88.8097 202.249 89.3048C199.785 89.6005 198.765 92.2554 199.835 94.4943C204.374 103.994 202.916 109.344 189.783 111.386C186.389 111.913 179.451 111.422 176.776 112.977C172.566 115.424 171.419 124.084 167.587 127.298C163.349 130.852 153.422 130.152 149.996 134.395C147.205 137.85 149.781 148.333 148.564 152.721C143.918 169.465 139.308 154.543 132.833 150.77C128.961 148.515 121.924 149.231 117.929 150.244C110.9 152.029 107.223 154.906 105.368 160.158C104.459 162.729 102.745 176.27 103.013 178.522C103.894 185.95 105.639 184.075 111.647 182.332C114.908 181.386 122.11 174.656 125.389 175.622C131.771 177.5 126.653 185.944 128.584 188.724C129.94 190.674 134.896 190.173 136.602 191.873C138.316 193.582 137.626 195.606 138.811 197.992C140.653 201.704 141.433 204.349 143.254 207.444C144.38 209.359 146.935 209.629 148.779 208.389C156.884 202.943 162.085 203.53 172.845 205.661C176.278 206.34 183.229 205.824 186.238 206.987C190.839 208.766 192.349 216.401 196.548 219.173C200.364 221.693 207.556 219.461 211.161 222.138C214.942 224.943 213.669 232.793 216.887 236.348C219.535 239.273 225.732 238.777 229.251 240.815C233.514 243.284 236.178 247.941 240.596 250.292C252.672 256.718 260.622 256.658 251.142 271.015C248.785 274.582 246.569 277.552 245.382 281.432C243.658 287.067 246.611 296.309 243.676 301.332C241.389 305.247 234.158 306.026 230.958 309.403C227.366 313.196 227.092 317.13 225.735 322.786C224.862 326.426 224.477 332.349 222.151 335.123C218.008 340.063 212.262 338.367 209.745 344.475C208.68 347.057 210.349 351.666 208.798 353.944C207.31 356.131 202.107 356.398 200.248 358.22C195.004 363.356 198.605 366.408 199.081 374.576C199.379 379.723 196.898 385.662 197.719 390.556C198.361 394.38 201.326 398.626 203.84 402.42C205.038 404.228 204.412 406.715 202.254 406.944C195.498 407.661 187.39 401.378 183.495 396.995C175.209 387.671 179.304 383.038 177.286 371.989C175.844 364.099 170.25 357.188 169.171 349.205C167.577 337.422 169.171 324.267 169.171 312.385C169.171 300.785 169.512 300.885 160.702 292.905C152.483 285.462 150.356 281.065 145.713 270.747C141.156 260.619 137.175 256.175 140.161 245.818C142.522 237.631 145.105 229.88 146.879 221.681C147.392 219.306 145.588 217.111 143.158 217.065C135.836 216.923 132.183 216.645 125.41 210.888C118.158 204.725 111.505 197.632 102.885 193.832C90.7415 188.476 86.4906 191.31 81.2564 178.973C79.8012 175.543 78.6835 169.69 76.1739 166.992C73.1106 163.701 65.7036 163.547 63.0225 159.958C58.7002 154.171 61.4945 141.465 59.2363 134.395C56.9212 127.147 47.8686 119.465 51.6963 111.29C53.8222 106.749 62.1269 104.647 63.9003 99.9781C65.011 97.0551 61.7417 93.1817 62.1125 89.975C62.836 83.7191 66.3387 83.8797 64.8467 78.127C64.2906 75.9826 62.7013 74.2594 61.5601 72.587C59.7146 69.8821 57.9212 64.7021 54.6772 64.2562C47.3952 63.2553 42.9917 64.1151 33.6604 67.4926Z" fill="#571AFF"/>
<path d="M233.406 20.3077C240.074 20.3077 249.081 17.9166 252.58 25.4211C256.168 33.1162 249.574 38.8129 247.732 45.1046C245.665 52.1661 250.658 59.4598 258.032 61.3922C267.876 63.9697 268.7 54.3279 275.247 48.8232C281.576 43.5034 287.36 47.2606 294.607 43.7643C299.412 41.4449 301.492 34.3074 306.182 30.9917C308.962 29.0263 314.347 28.5834 316.247 25.917C318.228 23.1346 315.78 16.3655 318.093 13.9156C322.719 9.01876 338.746 15.1112 335.03 3.68898C330.242 4.1821 322.672 6.38683 317.993 5.44357C316.683 5.17981 314.601 6.35958 313.3 5.92666C312.229 5.56971 312.961 0.999669 311.664 0.558147C303.924 -2.08382 287.469 5.46222 279.179 6.35817C270.766 7.26702 261.26 4.77987 253.131 6.5732C247.434 7.82895 231.68 13.2591 233.406 20.3077Z" fill="#571AFF"/>
<path d="M302.433 45.2393V50.0315C302.433 50.9447 303.359 51.5654 304.203 51.2199L315.895 46.4277C317.198 45.8944 316.816 43.9563 315.408 43.9563H303.718C303.008 43.9563 302.433 44.5312 302.433 45.2393Z" fill="#571AFF"/>
<path d="M367.627 49.3893C360.336 54.5199 359.453 52.9057 361.64 60.1149C363.515 66.2976 366.036 67.4659 371.781 68.0838C386.604 69.6793 379.592 48.7557 387.488 50.0516C395.834 51.422 390.345 70.558 386.162 75.2743C378.104 84.3628 367.235 73.706 358.525 78.9083C355.072 80.9711 355.056 90.5169 349.292 88.3766C348.108 87.938 347.127 78.7592 345.995 75.9767C342.8 68.1254 338.483 57.5991 329.561 63.3905C326.991 65.0605 318.364 78.0725 318.127 81.0858C317.697 86.5776 318.682 85.4293 322.953 85.2989C329.988 85.0824 328.601 79.8673 335.03 85.1512C336.581 86.4256 334.234 90.547 336.094 91.893C336.498 92.1853 337.247 92.3134 338.157 92.3465C341.275 92.46 342.93 95.169 341.572 97.9791C341.225 98.6981 340.93 99.4286 340.715 100.173C340.225 101.883 341.388 107.022 340.143 108.191C338.686 109.558 332.582 107.644 330.694 108.191C325.276 109.757 328.429 107.435 324.901 112.073C321.584 116.433 321.108 122.844 322.252 127.914C322.92 130.872 325.989 132.42 325.42 135.059C324.714 138.323 318.446 140.187 317.134 143.343C313.372 152.399 319.597 151.696 311.059 158.278C304.597 163.259 301.464 163.708 299.877 170.702C298.434 177.06 300.458 183.3 298.385 189.553C295.699 197.656 291.638 199.491 297.42 206.078C301.352 210.555 308.077 212.751 312.451 216.854C318.705 222.721 318.922 228.53 327.933 228.351C333.657 228.237 338.668 222.608 343.942 223.25C349.553 223.933 353.406 230.765 358.451 233.111C368.124 237.613 363.478 233.08 365.902 245.121C367.29 252.012 373.129 257.163 374.906 263.88C376.394 269.507 373.735 275.654 372.806 281.613C371.718 288.593 372.244 291.249 374.222 298.372C377.634 310.65 380.954 323.578 383.358 335.985C384.911 343.998 381.87 344.553 390.956 345.796C398.198 346.785 404.282 344.927 410.12 339.852C415.059 335.56 415.281 328.68 419.348 323.526C421.928 320.256 429.382 318.274 430.406 315.136C432.278 309.397 426.739 305.058 429.764 299.175C432.771 293.325 443.451 288.356 444.963 282.04C446.094 277.322 440.316 268.071 439.648 263.304C438.831 257.483 438.851 253.863 442.751 248.476C451.669 236.159 465.248 231.199 469.568 215.379C471.049 209.954 471.763 205.908 466.784 203.744C461.416 201.411 448.643 205.694 457.907 194.956C465.113 186.601 483.75 194.63 487.965 180.107C491.551 167.746 481.653 167.866 473.71 165.733C468.725 164.393 456.195 159.359 455.712 153.12C454.966 143.471 463.742 146.738 468.133 149.576C473.334 152.936 477.285 156.536 483.416 157.886C494.086 160.236 497.631 156.362 504.405 165.395C506.172 167.75 507.726 170.567 510.122 172.022C512.955 173.745 519.462 172.594 521.662 174.982C525.166 178.784 522.486 190.995 524.219 196.074C526.04 201.412 529.573 206.661 532.729 211.72C534.123 213.955 537.444 214.393 538.237 211.882C539.381 208.263 537.874 204.767 539.238 200.122C540.63 195.387 544.866 192.22 548.555 188.439C556.842 179.942 567.107 162.899 572.368 180.729C572.972 182.774 573.683 189.259 575.291 190.634C576.852 191.968 580.73 190.277 581.873 191.38C585.168 194.567 583.048 203.699 584.784 208.917C586.507 214.094 591.126 218.577 594.508 223.015C597.592 227.063 598.842 228.992 601.167 229.745C604.141 230.709 605.765 226.81 603.711 224.453C598.776 218.791 592.668 211.829 591.822 205.451C591.55 203.403 593.606 201.998 595.364 203.084C599.162 205.43 601.42 210.1 605.071 210.774C610.703 211.815 614.064 205.628 613.06 200.548C611.536 192.827 593.341 180.97 610.342 176.615C616.05 175.153 620.672 178.44 625.424 175.172C629.666 172.254 632.537 165.699 633.513 161.139C636.038 149.354 622.421 138.673 624.66 129.957C628.612 114.574 640.826 141.59 647.255 137.912C653.074 134.582 647.353 128.214 646.16 124.418C642.764 113.612 647.062 120.965 651.729 111.706C652.994 109.198 650.45 104.756 651.729 102.257C652.629 100.498 656.17 100.152 656.883 98.5832C658.534 94.9507 659.616 89.1536 656.156 83.9743C651.43 76.8999 629.295 74.9991 632.914 66.8553C636.469 58.8591 646.54 66.1729 651.891 64.9243C656.969 63.7388 658.429 55.2968 664.353 56.739C670.834 58.3173 666.289 69.4757 668.539 74.7195C670.163 78.504 674.793 81.609 678.828 84.4144C680.559 85.6171 682.96 84.8401 683.656 82.8504C686.445 74.8844 684.468 72.0589 680.057 63.7402C679.271 62.258 680.012 60.4231 681.608 59.9027L692.136 56.4652C693.267 56.0953 693.844 54.841 693.39 53.7415L691.154 48.3371C690.834 47.5645 691.538 46.7588 692.346 46.9753C697.094 48.2497 703.944 50.7841 707.844 48.6124C709.141 47.8884 709.227 46.0521 708.01 45.2006C704.682 42.8726 701.891 40.9889 697.923 40.1217C690.506 38.4989 681.94 41.8634 674.555 40.1217C662.872 37.3665 658.841 28.1102 646.034 29.6412C630.344 31.5177 621.8 31.2898 606.506 27.5096C594.77 24.6082 583.779 31.4417 573.768 26.5563C566.469 22.9955 567.169 22.0651 559.091 23.2549C550 24.5952 548.258 27.0681 541.858 21.463C534.954 15.4193 538.826 15.7834 531.376 16.3554C523.157 16.9861 513.299 22.0895 505.438 24.5838C500.964 26.003 494.702 29.3904 489.96 29.4936C485.517 29.5925 478.095 23.4527 474.045 24.7816C470.893 25.8166 468.861 32.9612 465.448 34.7947C458.963 38.2753 448.508 38.615 441.348 40.2306C436.709 41.2771 428.796 44.7261 424.309 43.5435C418.266 41.9508 415.592 35.5086 409.103 34.5955C402.904 33.7225 388.553 33.9862 382.77 36.2583C377.365 38.3814 372.029 45.4658 367.627 49.3893Z" fill="#571AFF"/>
<path d="M447.833 31.0876L457.544 19.6367C459.129 17.7674 457.472 14.9333 455.07 15.4164C449.207 16.5948 446.516 20.7162 441.258 26.4889C440.693 27.1097 440.831 28.0902 441.544 28.5331L446.1 31.36C446.666 31.7112 447.403 31.5951 447.833 31.0876Z" fill="#571AFF"/>
<path d="M447.521 319.111C447.218 313.358 443.867 298.642 446.959 294.469C449.284 291.331 456.192 290.968 459.185 288.431C462.247 285.837 464.657 281.117 466.967 277.482C467.326 276.915 468.191 277.056 468.351 277.707C469.406 281.976 471.564 287.998 470.727 291.566C469.768 295.648 464.997 299.095 462.771 302.83C460.195 307.157 455.934 328.499 447.521 319.111Z" fill="#571AFF"/>
<path d="M544.352 210.455C542.541 215.248 540.731 220.042 538.919 224.836C542.008 224.836 545.097 224.836 548.186 224.836C546.909 220.042 545.63 215.248 544.352 210.455Z" fill="#571AFF"/>
<path d="M661.709 101.531L659.621 106.44C659.324 107.137 659.655 107.941 660.356 108.229C667.32 111.089 669.212 112.364 675.154 109.005C676.1 108.47 676.062 107.094 675.091 106.61L663.567 100.847C662.868 100.497 662.016 100.81 661.709 101.531Z" fill="#571AFF"/>
<path d="M671.258 120.859C669.822 119.697 667.666 120.343 667.101 122.1C665.332 127.605 664.214 127.828 658.808 132.654C655.514 135.592 650.851 140.972 654.965 145.019C655.676 145.717 656.87 145.476 657.247 144.553C658.395 141.746 659.532 138.507 661.675 137.153C664.845 135.151 670.566 137.517 673.679 135.24C681.126 129.789 676.44 125.044 671.258 120.859Z" fill="#571AFF"/>
<path d="M643.101 183.291C641.91 185.813 637.391 192.587 638.023 195.128C638.898 198.64 645.734 201.014 647.327 204.514C648.113 206.243 649.72 233.174 658.333 220.776C658.394 220.69 654.983 199.696 654.244 198.319C652.22 194.544 649.818 193.45 648.373 189.504C647.582 187.341 648.472 175.941 643.101 183.291Z" fill="#571AFF"/>
<path d="M633.514 245.289C633.514 235.153 636.769 239.773 640.099 232.432C640.995 230.458 639.98 227.04 638.858 223.871C638.14 221.845 635.43 221.484 634.206 223.25C632.525 225.676 630.779 228.123 628.72 229.949C625.857 232.488 620.009 233.594 618.493 236.92C613.059 248.853 626.108 253.228 633.514 245.289Z" fill="#571AFF"/>
<path d="M586.855 247.845C590.766 250.276 596.427 252.577 599.012 256.192C600.584 258.391 599.986 262.884 601.876 264.782C603.736 266.653 609.729 267.236 612.001 268.158C617.194 270.265 621.422 274.42 626.506 276.409C631.921 278.529 634.61 277.397 640.864 275.968C638.178 268.902 630.748 269.862 624.885 266.914C618.383 263.642 617.981 259.482 612.836 254.059C609.532 250.577 585.114 239.301 586.855 247.845Z" fill="#571AFF"/>
<path d="M653.328 235.702C647.51 239.132 640.614 240.451 640.865 247.686C641.09 254.244 648.318 256.813 653.328 251.36C651.676 249.283 650.025 247.206 648.373 245.129C652.511 242.279 658.047 240.871 653.328 235.702Z" fill="#571AFF"/>
<path d="M702.222 266.7C704.442 268.231 713.581 276.588 717.242 273.092C722.367 268.198 709.488 260.546 707.301 258.662C702.698 254.699 699.604 247.679 695.145 244.306C689.135 239.761 687.825 245.818 680.461 244.929C676.922 244.502 668.21 234.198 665.312 239.856C663.21 243.956 672.901 249.018 675.703 250.381C678.172 251.584 682.27 251.495 684.137 253.348C685.924 255.126 685.616 259.567 686.936 261.747C691.063 268.566 694.398 267.157 702.222 266.7Z" fill="#571AFF"/>
<path d="M686.978 355.862C687.725 355.862 688.44 355.564 688.969 355.035C699.041 344.947 719.729 331.522 715.326 315.699C713.492 309.115 706.186 304.774 703.749 298.364C701.315 291.958 703.617 285.086 700.498 279.523C699.288 277.366 696.338 277.932 695.028 280.03C690.588 287.146 681.74 299.191 679.373 286.235C678.534 281.646 686.792 280.113 681.876 274.5C679.757 272.08 672.808 272.066 670.107 273.764C666.341 276.133 664.635 282.804 661.127 285.152C659.771 286.06 656.751 284.007 655.221 284.976C653.613 285.995 652.558 288.184 651.146 289.494C647.573 292.809 644.89 298.126 640.865 300.895C637.046 303.52 630.616 303.312 627.121 306.328C617.647 314.501 624.448 324.409 621.051 333.922C618.912 339.908 609.488 346.234 622.771 346.196C633.2 346.166 643.528 337.724 653.967 337.326C662.966 336.984 657.442 339.784 661.825 343.445C662.889 344.333 661.985 345.747 663.239 346.594C663.902 347.042 665.392 347.066 666.969 346.967C669.391 346.815 671.247 348.737 670.916 351.141L670.5 354.156C670.376 355.058 671.077 355.862 671.988 355.862H686.978Z" fill="#571AFF"/>
<path d="M673.391 374.784L683.463 369.85C684.674 369.257 684.951 367.651 684.006 366.688L679.67 362.262C678.841 361.417 677.458 361.484 676.716 362.406C674.087 365.67 671.508 368.64 670.594 372.546C670.215 374.176 671.889 375.52 673.391 374.784Z" fill="#571AFF"/>
<path d="M717.242 370.243C725.677 366.546 739.502 363.447 745.987 357.175C748.98 354.281 749.759 344.189 753.876 344.05C757.897 343.913 760.93 352.32 759.96 355.459C759.029 358.464 749.225 361.6 746.43 363.462C740.29 367.552 740.891 368.571 736.501 374.672C732.744 379.896 730.078 382.223 722.075 379.83C717.661 378.51 713.171 375.696 717.242 370.243Z" fill="#571AFF"/>
<path d="M142.326 167.631C139.77 168.59 137.212 169.549 134.656 170.508C139.949 180.652 140.208 175.048 149.996 177.858C154.8 179.237 162.822 189.643 168.881 185.527C176.925 180.066 164.081 177.775 160.738 176.68C154.41 174.608 148.3 170.619 142.326 167.631Z" fill="#571AFF"/>
</g>
</g>
<defs>
<clipPath id="clip0_903_379">
<rect width="760" height="407" fill="white"/>
</clipPath>
</defs>
</svg>
