<svg width="47" height="31" viewBox="0 0 47 31" fill="none" xmlns="http://www.w3.org/2000/svg">
<path d="M31.8108 29.105V28.2072C31.8108 26.9766 30.7132 26.0375 29.4969 26.2246C22.3133 27.33 11.0814 28.8755 9.91891 28.2942C8.29729 27.4834 3.83783 23.4294 4.64864 21.4023" stroke="white" stroke-width="2" stroke-linecap="round" stroke-linejoin="round"/>
<path d="M7.08107 10.8613L6.27026 12.8884" stroke="white" stroke-width="2" stroke-linecap="round" stroke-linejoin="round"/>
<path d="M24.9189 10.8618C24.9189 9.37532 25.4054 6.40234 27.3513 6.40234C29.2973 6.40234 29.7838 9.37532 29.7838 10.8618" stroke="white" stroke-width="2" stroke-linecap="round" stroke-linejoin="round"/>
<path d="M46 14.9156C44.2432 10.8616 39.3514 2.5102 33.8378 1.53723C29.3625 0.747456 24.5844 0.972706 21.7151 1.30235C20.7509 1.41311 20.0883 2.27365 19.719 3.1711C19.3407 4.09023 18.5904 4.98958 17.2162 5.18589C14.3784 5.5913 5.05405 5.18589 3.43243 8.42913C2.37425 10.5455 1.60378 15.3232 1.20903 18.626C1.07901 19.7138 1.87392 20.6818 2.96527 20.7777C8.62502 21.2755 17.5151 21.7434 19.2432 20.5913C21.1892 19.294 21.6757 18.1589 21.6757 17.7535" stroke="white" stroke-width="2" stroke-linecap="round" stroke-linejoin="round"/>
</svg>
