<?xml version="1.0" encoding="utf-8"?>
<!-- Generator: Adobe Illustrator 26.5.0, SVG Export Plug-In . SVG Version: 6.00 Build 0)  -->
<svg version="1.1" id="elkDa4xG3891" shape-rendering="geometricPrecision" text-rendering="geometricPrecision"
	 xmlns="http://www.w3.org/2000/svg" xmlns:xlink="http://www.w3.org/1999/xlink" x="0px" y="0px" viewBox="0 0 246 80"
	 style="enable-background:new 0 0 246 80;" xml:space="preserve">
<style type="text/css">
	.st0{fill:#FFFFFF;}
</style>
<g>
	<g>
		<path class="st0" d="M100,37.8v15.5h-2.8V37.8c0-5.6-2.9-8.4-7.8-8.4c-5,0-8.2,2.9-8.2,9v14.8h-2.8V27.2h2.6v4.4
			C82.9,28.4,86,27,90,27C96.2,27,100,30.8,100,37.8z"/>
		<path class="st0" d="M122.1,48.6l1.5,1.7c-1.8,2.1-4.4,3.2-7.5,3.2c-6.1,0-10.3-4.2-10.3-10c0-5.8,4.1-10,9.7-10
			c5.3,0,9.2,3.8,9.4,9.4L108.8,46c1,3.2,3.7,5.1,7.4,5.1C118.6,51.1,120.7,50.3,122.1,48.6z M108.4,43.3c0,0.3,0,0.6,0,0.8
			l13.8-2.7c-0.6-3.2-3.1-5.6-6.7-5.6C111.3,35.8,108.4,38.9,108.4,43.3z"/>
		<path class="st0" d="M139.9,52.1c-1,0.9-2.6,1.4-4.1,1.4c-3.7,0-5.7-2.1-5.7-5.7V29.4h2.6v4.3h5.9v2.2h-5.9v11.7
			c0,2.3,1.2,3.6,3.4,3.6c1.1,0,2.2-0.3,2.9-1L139.9,52.1z"/>
		<path class="st0" d="M175,33.7v10.8c0,5.8-2.8,8.9-8.2,8.9c-3.3,0-5.7-1.2-7-4.1c-1.2,2.9-3.5,4.1-7,4.1c-5.4,0-8.2-3.1-8.2-8.9
			V33.7h2.6v10.6c0,4.6,1.7,6.8,5.6,6.8c3.8,0,5.7-2.2,5.7-6.9V33.7h2.6v10.5c0,4.7,1.8,6.9,5.7,6.9c3.8,0,5.6-2.2,5.6-6.8V33.7H175
			z"/>
		<path class="st0" d="M180.2,43.5c0-5.8,4.2-10,10-10c5.7,0,10,4.1,10,10c0,5.8-4.2,10-10,10C184.4,53.5,180.2,49.3,180.2,43.5z
			 M197.4,43.5c0-4.6-3.1-7.6-7.3-7.6s-7.3,3.1-7.3,7.6c0,4.6,3.1,7.6,7.3,7.6S197.4,48.1,197.4,43.5z"/>
		<path class="st0" d="M215.4,33.6v2.6c-0.2,0-0.4,0-0.6,0c-4.1,0-6.6,2.6-6.6,7.2v10h-2.6V33.7h2.5v3.8
			C209.3,34.9,211.8,33.6,215.4,33.6z"/>
		<path class="st0" d="M227.5,43.5l-4.6,4.2v5.6h-2.6V25.6h2.6v18.8l11.7-10.7h3.3l-8.4,8l9.2,11.6h-3.2L227.5,43.5z"/>
	</g>
	<g>
		<path class="st0" d="M13.3,37.5C13.4,37.5,13.4,37.5,13.3,37.5c0,1-0.1,2.1-0.2,3.2c-0.1,1.1-0.1,2.1-0.2,3.2
			c-0.1,0.1-0.1,0.2-0.1,0.3c0,0.1,0,0.2-0.1,0.4c0,0.5,0,1-0.1,1.6c0,0.5,0,1-0.1,1.5c-0.1,0.9-0.2,1.8-0.4,2.7
			c-0.1,0.9-0.3,1.8-0.4,2.7c0,0.1-0.1,0.3-0.2,0.6c-0.1,0.3-0.3,0.5-0.5,0.6c-0.2,0.1-0.5,0.2-0.8,0.2c-0.3,0-0.6-0.1-0.8-0.2
			c-0.2-0.2-0.4-0.4-0.5-0.6C9,53.6,9,53.4,9,53.3c0-0.2,0-0.3-0.1-0.5c0-0.1,0-0.3,0-0.4c0-0.1,0-0.3,0-0.4l-0.2-3.7V47
			c-0.1-0.1-0.2-0.1-0.3-0.2c-0.1-0.1-0.2-0.1-0.3-0.2c-0.7-0.6-0.9-1.2-0.5-2c0.1-0.2,0.2-0.3,0.4-0.5c0.1-0.2,0.3-0.3,0.4-0.5
			c0.3-0.4,0.5-0.7,0.5-1.2c0-0.1,0-0.1,0-0.1c0,0,0-0.1,0-0.1C8.9,41,9,39.7,9.1,38.5c0.1-1.3,0.1-2.6,0.2-3.8c0.1-1,0.1-2,0.1-3
			c0-1,0.1-2,0.1-3c0-0.5,0.1-1,0.2-1.5c0-0.2,0.1-0.4,0.2-0.6c0.3-0.5,0.8-0.8,1.4-0.8c0.7,0,1.2,0.3,1.5,0.9
			C13,26.7,13,26.8,13,27c0,0.2,0.1,0.3,0.1,0.4c0.1,0.4,0.1,0.9,0.1,1.3c0,0.4,0,0.9,0,1.3c0,1.1,0,2.2,0,3.2c0,1.1,0,2.1,0,3.2
			c0,0.2,0,0.3,0,0.5C13.3,37.2,13.3,37.4,13.3,37.5z M8.6,38.3c0,0.1,0,0.1,0,0.1c0,0,0,0.1,0,0.2C8.5,38.5,8.5,38.4,8.6,38.3
			C8.5,38.3,8.5,38.2,8.6,38.3c-0.1-0.1-0.1-0.2,0-0.2V38.3z M8.9,36.5c-0.1-0.5-0.2-1.3-0.2-2.2s0.1-1.8,0.2-2.6V36.5z M10.1,53.3
			c0.1,0,0.2,0,0.2-0.1c0-0.1-0.1-0.1-0.2-0.1c-0.1,0-0.2,0-0.2,0.1C9.9,53.3,10,53.3,10.1,53.3z M10.4,53.9c0.1,0,0.2,0,0.2-0.1
			c0-0.1-0.1-0.1-0.2-0.1c-0.1,0-0.1,0-0.1,0.1C10.2,53.8,10.3,53.9,10.4,53.9z M10.6,48.6c0-0.1-0.1-0.2-0.2-0.2
			c-0.1,0-0.1,0.1-0.1,0.2c0,0.2,0,0.4,0.1,0.6c0,0.2,0,0.4,0,0.6c0,0.1,0.1,0.1,0.2,0.1c0.1,0,0.2,0,0.1-0.1c0-0.2,0-0.4,0-0.6
			C10.6,49,10.6,48.8,10.6,48.6z M10.5,45.7c-0.1,0.1-0.1,0.1,0,0.2c0.1,0.1,0.1,0.1,0.2,0l0.1-0.1c0.1-0.1,0-0.1,0-0.2
			C10.7,45.6,10.6,45.6,10.5,45.7L10.5,45.7z M11.3,30.8c0-0.2,0.1-0.4,0.1-0.6c0-0.2,0.1-0.4,0.1-0.6c0-0.1,0-0.1-0.1-0.2
			c-0.1,0-0.2,0-0.2,0.1c-0.7,4.4-0.8,8.8-0.3,13.2c0,0.1,0.1,0.2,0.2,0.2c0.1,0,0.2-0.1,0.1-0.2l-0.1-1.2L11.3,30.8z M10.8,46.7
			c0.1,0,0.1,0,0.1-0.1s0-0.1-0.1-0.1c-0.1,0-0.2,0-0.2,0.1S10.7,46.7,10.8,46.7z M10.8,52.9c0.1,0,0.1,0,0.1-0.1
			c0-0.1,0-0.1-0.1-0.1c-0.1,0-0.2,0-0.2,0.1C10.6,52.8,10.7,52.9,10.8,52.9z M11.7,44.8c0.1,0,0.2,0,0.2-0.1c0-0.1-0.1-0.1-0.2-0.1
			h-0.1c-0.1,0-0.1,0-0.1,0.1C11.5,44.7,11.6,44.8,11.7,44.8L11.7,44.8z M11.7,45.5c0.1,0,0.2,0,0.2-0.1c0-0.1-0.1-0.1-0.2-0.1
			c-0.1,0-0.1,0-0.1,0.1C11.5,45.4,11.6,45.5,11.7,45.5z M13.3,24.9c0.2,0.2,0.4,0.4,0.4,0.5c0,0.1-0.1,0.3-0.3,0.6
			c-0.2-0.1-0.4-0.3-0.5-0.4c-0.2-0.1-0.4-0.2-0.6-0.4c0.2-0.1,0.4-0.1,0.5-0.1C12.9,25,13.1,25,13.3,24.9z M13.4,40.1v1.7l-0.1,1.6
			c-0.1,0.1-0.1,0.1-0.1,0.1c0,0,0,0.1-0.1,0.1L13.4,40.1z M13.1,42.3c0.1-0.7,0.1-1.4,0.1-2c0-0.7,0.1-1.3,0.1-2c0,0.1,0,0.2,0,0.3
			c0,0.1,0,0.2,0,0.3L13.1,42.3z M13.4,38.7V39v0.7v-0.9V38.7z M13.7,38.3l-0.1,1.2V39l0.1-1.5l0,0c0.1,0,0.1-0.1,0.1-0.1
			c0,0,0-0.1,0.1-0.1c0,0.2,0,0.3-0.1,0.5C13.7,37.9,13.7,38.1,13.7,38.3L13.7,38.3z M13.7,40.4c0.1,0.2,0.1,0.4,0.1,0.6
			c0,0.2,0,0.4,0.1,0.6c0,0.2,0,0.4,0,0.6c0,0.2,0,0.4,0,0.6l-0.4,0.4L13.7,40.4z M13.6,40.7c0,0.1,0,0.2,0,0.3v0.3
			c0-0.1,0-0.2,0-0.3C13.6,40.9,13.6,40.8,13.6,40.7z M13.7,39.9c0-0.2,0-0.5,0.1-0.7c0-0.2,0-0.5,0.1-0.7V41L13.7,39.9z M14,41.9
			c0-0.7,0-1.4-0.1-2.1c0-0.7,0-1.4,0-2.1c0.1,0.7,0.2,1.5,0.3,2.3c0.1,0.8,0.1,1.5,0.2,2.3c-0.1,0.1-0.1,0.1-0.1,0.1
			c0,0-0.1,0.1-0.1,0.1c0-0.1,0-0.2-0.1-0.3C14.1,42.1,14.1,42,14,41.9z M26.8,25.5c0.6,0.3,0.7,0.7,0.5,1.3
			c-0.1,0.2-0.1,0.4-0.2,0.6c-0.1,0.2-0.2,0.4-0.3,0.5c-0.4,0.6-0.8,1.1-1.2,1.6c-0.4,0.5-0.8,1.1-1.3,1.6c-0.7,0.9-1.5,1.7-2.2,2.5
			c-0.8,0.8-1.5,1.7-2.2,2.5l-0.9,1h0c-0.6,0.6-1.1,1.1-1.7,1.7c-0.5,0.6-1,1.2-1.5,1.9c-0.1,0.1-0.2,0.2-0.4,0.4
			c-0.1,0.1-0.3,0.3-0.4,0.5c-0.2,0.2-0.3,0.3-0.4,0.5c-0.1-0.8-0.1-1.6-0.2-2.5c-0.1-0.8-0.2-1.7-0.3-2.5v-0.1
			c0.1-0.1,0.2-0.2,0.2-0.3c0.1-0.1,0.2-0.2,0.2-0.3c-0.1-0.3-0.2-0.5-0.2-0.8c-0.1-0.3-0.1-0.5-0.1-0.8c-0.1-0.4-0.1-0.8,0-1.2
			c0.1-0.4,0.4-0.7,0.8-0.8c0.4-0.1,0.8-0.1,1.3,0.1c0.1,0.1,0.3,0.1,0.4,0.2c0.1,0.1,0.2,0.2,0.4,0.2c0.2-0.1,0.4-0.2,0.6-0.3
			c0.1-0.2,0.3-0.3,0.4-0.4c1-1,1.9-2,2.9-3c1-1,2-2,3-3c0.2-0.2,0.4-0.4,0.6-0.5c0.2-0.2,0.4-0.3,0.7-0.5
			C25.6,25.2,26.2,25.2,26.8,25.5z M14.1,42.7c0-0.1,0-0.1,0-0.1c0,0,0-0.1,0-0.1c0,0.1,0,0.1,0,0.1C14.1,42.5,14.1,42.6,14.1,42.7
			C14.1,42.6,14.1,42.6,14.1,42.7z M19.1,37.8c-0.4,0.3-0.8,0.6-1.1,1c-0.3,0.3-0.7,0.7-1,1.1c-0.2,0.1-0.3,0.3-0.5,0.4
			c-0.2,0.1-0.3,0.3-0.4,0.4v-0.1c0.4-0.6,0.9-1.1,1.4-1.6c0.5-0.5,1-1.1,1.5-1.6C19.1,37.6,19.1,37.7,19.1,37.8z M16.6,40.4
			c-0.1,0.1-0.1,0.1-0.1,0.1c0,0,0,0.1-0.1,0.1c0,0.1-0.1,0.1-0.2,0.2c0-0.1,0-0.1,0-0.1c0.1-0.1,0.2-0.2,0.3-0.3
			c0.1-0.1,0.2-0.2,0.3-0.3C16.7,40.2,16.7,40.3,16.6,40.4z M18.9,38.5c0,0.1-0.1,0.1-0.1,0.2c-0.8,0.8-1.6,1.6-2.4,2.5c0,0,0,0,0,0
			c0,0,0,0,0,0c0.3-0.3,0.6-0.7,0.9-1c0.3-0.3,0.6-0.6,0.9-0.9c0.1-0.1,0.3-0.2,0.4-0.3C18.6,38.7,18.7,38.6,18.9,38.5z M16.4,40.9
			c0.1-0.1,0.1-0.2,0.2-0.3c0,0,0,0.1-0.1,0.1c0,0,0,0.1-0.1,0.1C16.4,40.8,16.4,40.8,16.4,40.9z M17.9,39.5
			c-0.2,0.2-0.4,0.5-0.6,0.7c-0.2,0.2-0.4,0.5-0.6,0.7c-0.1,0.1-0.1,0.1-0.1,0.1c0,0-0.1,0.1-0.1,0.1v0c0.2-0.3,0.5-0.6,0.7-0.8
			C17.4,40.1,17.7,39.8,17.9,39.5z M16.4,41.3C16.5,41.3,16.5,41.2,16.4,41.3c0.1,0,0.1-0.1,0.1-0.1L16.4,41.3L16.4,41.3z
			 M22.6,30.1c0.1-0.1,0-0.1,0-0.2c-0.1-0.1-0.1-0.1-0.2,0c-1,1.1-1.9,2.1-2.9,3.2c-1,1.1-2,2.1-2.9,3.2c-0.1,0.1,0,0.1,0,0.2
			c0.1,0.1,0.1,0.1,0.2,0c1-1.1,1.9-2.1,2.9-3.2C20.6,32.2,21.6,31.1,22.6,30.1z M17,40.9c0.1,0,0.1-0.1,0.1-0.1
			c0,0,0.1-0.1,0.1-0.1c-0.1,0.1-0.3,0.3-0.4,0.4c-0.1,0.1-0.3,0.3-0.4,0.4v0h0c0.1-0.1,0.2-0.2,0.3-0.3C16.9,41.1,16.9,41,17,40.9z
			 M23.4,50.7c0.1,0.3,0.3,0.7,0.4,1c0.1,0.3,0.2,0.7,0.4,1.1c0.1,0.1,0.1,0.3,0.1,0.4c0,0.2,0.1,0.3,0.1,0.4c0,0.6-0.3,1-0.9,1.2
			c-0.3,0.1-0.6,0.1-0.9,0.1c-0.3-0.1-0.5-0.2-0.7-0.4c-0.2-0.2-0.3-0.4-0.4-0.6c-0.1-0.2-0.2-0.4-0.3-0.6c-0.7-1.5-1.4-3-2-4.5
			c-0.6-1.5-1.2-3.1-1.7-4.7c-0.1-0.4-0.3-0.8-0.4-1.2c-0.1-0.4-0.3-0.8-0.4-1.2c1-1,2-1.8,3.1-2.5c0.7,1.9,1.4,3.8,2,5.7
			C22.2,46.8,22.8,48.8,23.4,50.7z M18.6,39.9c-0.7,0.6-1.4,1.1-2,1.7c0.3-0.4,0.7-0.7,1.1-1.1c0.1-0.1,0.3-0.2,0.4-0.3
			C18.2,40.1,18.4,40,18.6,39.9z M16.8,41L16.8,41l-0.1,0.1C16.7,41.1,16.7,41.1,16.8,41C16.7,41.1,16.8,41.1,16.8,41z M18.8,38.7
			c0.1-0.1,0.2-0.2,0.2-0.2s0.2-0.2,0.3-0.2l0.1,0.4c-0.5,0.3-0.9,0.7-1.3,1.1c-0.4,0.4-0.8,0.8-1.1,1.2c0,0,0,0,0,0c0,0,0,0,0,0
			c0.3-0.4,0.6-0.8,0.9-1.1C18.1,39.4,18.4,39.1,18.8,38.7z M17.9,31.8c-0.1,0.1-0.2,0.2-0.3,0.3c-0.1,0.1-0.2,0.2-0.3,0.3
			c-0.1-0.1-0.2-0.1-0.2-0.2c0.1-0.1,0.2-0.2,0.3-0.3c0.1-0.1,0.2-0.2,0.3-0.2C17.8,31.7,17.8,31.7,17.9,31.8z M17.2,40.7
			c0.3-0.4,0.7-0.7,1.1-1.1c0.4-0.3,0.8-0.7,1.1-1c0,0,0,0.1,0,0.1c-0.3,0.3-0.6,0.6-1,0.9c-0.3,0.3-0.7,0.5-1,0.9
			C17.5,40.5,17.4,40.6,17.2,40.7z M17.6,39.4c-0.1,0-0.1,0.1-0.2,0.2c0.2-0.3,0.5-0.6,0.8-0.9c0.3-0.3,0.6-0.6,1-0.9v0l0,0.1
			c-0.3,0.2-0.6,0.5-0.8,0.7C18.1,38.9,17.8,39.2,17.6,39.4z M19.7,39.1c-0.3,0.2-0.6,0.4-0.9,0.6c-0.3,0.2-0.6,0.4-0.8,0.6
			c0.2-0.2,0.5-0.5,0.8-0.7c0.3-0.2,0.5-0.5,0.8-0.7c0,0.1,0,0.1,0.1,0.1C19.6,39,19.6,39,19.7,39.1z M21.5,50.1
			c0.1,0.1,0.1,0.1,0.2,0c0.1-0.1,0.1-0.1,0-0.2c-0.1-0.3-0.3-0.5-0.4-0.8c-0.1-0.2-0.2-0.5-0.4-0.7l-1.6-4.5
			c-0.1-0.3-0.1-0.5-0.2-0.8c-0.1-0.3-0.2-0.5-0.2-0.8c0-0.1-0.1-0.1-0.2-0.1c-0.1,0-0.1,0.1-0.1,0.1C19.4,45.1,20.3,47.6,21.5,50.1
			z M19.6,29.8c-0.1,0.4-0.3,0.6-0.6,0.6c0.1-0.1,0.1-0.2,0.2-0.2C19.3,30.1,19.4,29.9,19.6,29.8z M22.3,53.1c0.1,0,0.1,0,0.1-0.1
			s0-0.1-0.1-0.1h-0.1c-0.1,0-0.2,0-0.2,0.1S22.1,53.1,22.3,53.1L22.3,53.1z M22.8,53.9c0-0.1-0.1-0.1-0.2-0.1c-0.1,0-0.2,0-0.2,0.1
			v0c0,0.1,0.1,0.2,0.2,0.2C22.7,54.1,22.8,54,22.8,53.9L22.8,53.9z M24.5,49.9l0,1.2l-0.1,0.3L24,51.2L23.1,48v-1L24.5,49.9z
			 M23.6,53.2c0.1,0,0.1,0,0.1-0.1s0-0.1-0.1-0.1h-0.1c-0.1,0-0.2,0-0.2,0.1S23.4,53.2,23.6,53.2L23.6,53.2z M24.4,28.5
			c0.1,0,0.2,0,0.2-0.1s-0.1-0.1-0.2-0.1h0c-0.1,0-0.2,0-0.2,0.1S24.2,28.5,24.4,28.5L24.4,28.5z M25.4,26.9c0.1,0,0.1,0,0.1-0.1
			s0-0.1-0.1-0.1c-0.1,0-0.2,0-0.2,0.1S25.3,26.9,25.4,26.9z M26.1,24.8C26.1,24.9,26,25,25.8,25c-0.1,0-0.3,0-0.4-0.1
			c0.1-0.2,0.2-0.3,0.3-0.5c0.1-0.1,0.2-0.1,0.4,0C26.2,24.5,26.2,24.6,26.1,24.8z M26.1,27.6c0.1,0,0.2,0,0.2-0.1s-0.1-0.1-0.2-0.1
			h-0.2c-0.1,0-0.1,0-0.1,0.1s0,0.1,0.1,0.1H26.1z M26.5,26.7c0.1,0,0.2,0,0.2-0.1c0-0.1-0.1-0.1-0.2-0.1c-0.1,0-0.2,0-0.2,0.1
			C26.3,26.7,26.4,26.7,26.5,26.7z"/>
		<path class="st0" d="M46.9,33.5C47,34.3,47,35.2,47,36c0,0.8-0.2,1.6-0.4,2.4c-0.5,2-1.2,4-2,5.9c-0.8,1.9-1.8,3.8-3.1,5.6
			c-0.2,0.4-0.5,0.7-0.8,1.1c-0.3,0.3-0.5,0.7-0.9,1c-0.4,0.4-0.8,0.8-1.3,1.1c-0.5,0.3-1,0.6-1.5,0.9c-1.1,0.5-2.2,0.6-3.3,0.5
			c-1.1-0.1-2.1-0.6-3-1.3c-0.5-0.4-1-0.9-1.4-1.4c-0.4-0.5-0.7-1.1-0.9-1.7c-0.4-1-0.6-1.9-0.7-2.9c-0.1-0.7-0.1-1.5,0-2.3
			c0-0.8,0.1-1.5,0.3-2.2c0.2-0.9,0.4-1.8,0.6-2.7c0.2-0.9,0.5-1.8,0.7-2.7c0.8-2.7,2.1-5.1,4-7.2c0.6,0.2,1.3,0.4,1.9,0.6
			c0.6,0.2,1.3,0.4,1.9,0.7c-0.6,0.7-1.1,1.3-1.5,2c-0.8,1.2-1.5,2.5-2,3.8c-0.5,1.3-1,2.7-1.3,4c-0.2,0.9-0.4,1.8-0.6,2.7
			c-0.1,0.9-0.2,1.8-0.1,2.7c0.1,0.6,0.2,1.1,0.3,1.6c0.2,0.5,0.4,1,0.7,1.5c0.2,0.3,0.4,0.6,0.7,0.9c0.5,0.5,1.1,0.6,1.8,0.2
			c0.5-0.2,1-0.6,1.4-1c0.5-0.5,1-1.1,1.4-1.7c2.2-3.2,3.7-6.8,4.6-10.5c0.1-0.6,0.2-1.3,0.2-1.9c0-0.6,0-1.2-0.1-1.9
			c-0.2-1.6-1.2-2.6-2.7-3.1c-0.2-0.1-0.5-0.2-0.8-0.2c-0.3-0.1-0.6-0.2-0.9-0.3c-0.1,0-0.1,0.1-0.2,0.1c-0.1-0.1-0.2-0.1-0.3-0.1
			c-0.1,0-0.2,0-0.3-0.1c-0.5-0.2-1-0.4-1.4-0.6c-0.5-0.2-1-0.4-1.5-0.6c-0.1,0-0.1,0-0.1-0.1c0,0,0,0-0.1-0.1
			c-0.1-0.1-0.1-0.3-0.2-0.5c-0.1-0.2-0.1-0.3-0.1-0.5c-0.2-0.7,0.1-1.2,0.7-1.6c0.2-0.1,0.4-0.2,0.6-0.2c0.2-0.1,0.4-0.2,0.5-0.4
			c0-0.1,0.1-0.1,0.2-0.1c0.1,0,0.2,0,0.3,0c0.4-0.1,0.9-0.1,1.3,0c0.1,0.1,0.1,0.2,0.1,0.3c0,0.1,0,0.2,0.1,0.3
			c0.5,0.1,1.1,0.2,1.6,0.3c0.5,0.1,1.1,0.2,1.6,0.4c1.7,0.6,3.1,1.4,4,2.5C46.1,30.6,46.7,31.9,46.9,33.5z M29.4,46.8
			c-0.1,0-0.2,0-0.2,0.1c0,0.1,0.1,0.1,0.2,0.1c0.1,0,0.2,0,0.2-0.1C29.5,46.8,29.5,46.8,29.4,46.8z M31,51.9c0.1,0.1,0.1,0.1,0.2,0
			c0.1-0.1,0.1-0.1,0-0.2c-0.1-0.1-0.2-0.2-0.4-0.5l-1-2c-0.1-0.1-0.1-0.3-0.2-0.6c0-0.1-0.1-0.1-0.2-0.1c-0.1,0-0.2,0.1-0.1,0.2
			C29.5,49.9,30.1,51,31,51.9z M29.4,45.8c0,0.1,0.1,0.2,0.2,0.2c0.1,0,0.2-0.1,0.2-0.2v0c0-0.1-0.1-0.2-0.2-0.2
			C29.4,45.6,29.4,45.6,29.4,45.8L29.4,45.8z M35.6,55.2l-1,0.1c0,0,0,0,0,0h-0.1l-0.7,0.1l-0.5-0.1h0h0h0l-0.7-0.2l-0.9-0.4
			l-0.9-0.3L29.6,53c0.1,0.1,0.2,0.2,0.3,0.3c0.1,0.1,0.2,0.2,0.3,0.2c0.1,0.1,0.2,0.2,0.2,0.2l1.5,0.6l0,0v0h0l0.3,0.2
			c0.2,0.1,0.5,0.2,0.7,0.3c0.2,0.1,0.5,0.1,0.7,0.2c0.3,0.1,0.5,0.1,0.8,0.1L35.6,55.2z M33.3,34c-1.7,2.8-2.8,5.8-3.5,9
			c0,0.1,0,0.1,0.1,0.2c0.1,0,0.2,0,0.2-0.1c0-0.2,0.1-0.4,0.1-0.5c0-0.2,0.1-0.3,0.1-0.5l2.7-6.9c0.2-0.4,0.3-0.7,0.5-0.9
			c0.1-0.1,0-0.2-0.1-0.2C33.4,33.9,33.4,33.9,33.3,34z M30.1,46.1c0.1,0.1,0.2,0,0.2,0c0.1-0.1,0-0.1,0-0.2l-0.2-0.1
			c-0.1-0.1-0.2,0-0.2,0c-0.1,0.1,0,0.2,0,0.2C30,46.1,30,46.1,30.1,46.1C30.1,46.1,30.1,46.1,30.1,46.1z M32.2,45.1L32.2,45.1
			l0,0.5h0V45.1z M35.8,35.9c-0.1,0.2-0.2,0.5-0.4,0.9c-0.2,0.3-0.3,0.7-0.5,1.1c-0.2,0.4-0.4,0.7-0.5,1c-0.2,0.3-0.3,0.6-0.4,0.7v0
			c0,0.2-0.1,0.3-0.2,0.5c0,0,0,0,0,0v0v0c0,0.1,0,0.1-0.1,0.2c0,0.1,0,0.1-0.1,0.2c-0.1,0.1-0.1,0.3-0.1,0.4c0,0.1-0.1,0.3-0.1,0.4
			c-0.1,0.3-0.2,0.6-0.2,0.9c-0.1,0.3-0.1,0.5-0.1,0.7c0,0,0,0.1,0,0.2c0,0,0,0.1,0,0.1v0.1c-0.1,0.3-0.2,0.5-0.2,0.6v0l-0.3,0.7
			c0.1-0.4,0.1-0.9,0.2-1.4c0.1-0.4,0.1-0.8,0.2-1.3c0.1-0.5,0.2-1,0.4-1.5c0.2-0.6,0.5-1.3,1-2.1c0.5-0.8,0.9-1.5,1.3-2.1
			c0,0,0-0.1,0-0.1h0.1c0.1-0.2,0.3-0.4,0.4-0.5c0.1-0.2,0.2-0.3,0.3-0.4c0.1-0.1,0.2-0.2,0.2-0.3l-0.3,0.8c0,0,0,0,0,0
			c0,0,0,0.1,0,0.1c0,0,0,0.1,0,0.1C35.8,35.8,35.8,35.8,35.8,35.9C35.8,35.8,35.8,35.9,35.8,35.9z M32.8,43.2
			C32.8,43.2,32.8,43.1,32.8,43.2L32.8,43.2L32.8,43.2C32.8,43.3,32.8,43.2,32.8,43.2L32.8,43.2z M33.5,30.2
			c0.4,0.1,0.8,0.3,1.2,0.4c0.4,0.1,0.8,0.3,1.2,0.5c-0.4-0.2-0.8-0.3-1.2-0.5C34.3,30.5,33.9,30.4,33.5,30.2z M37.3,31.5
			c-1.4-0.6-2.6-1-3.8-1.4c0.1-0.1,0.1-0.2,0.2-0.2c0.7,0.3,1.3,0.6,2,0.7l0.8,0.2c0.2,0.1,0.3,0.2,0.5,0.2
			C37.1,31.3,37.2,31.4,37.3,31.5L37.3,31.5z M35.7,30.6c-0.3-0.1-0.7-0.2-1-0.3c-0.3-0.1-0.7-0.2-1-0.4l0.1-0.1
			c0.2,0.1,0.3,0.1,0.5,0.2c0.2,0.1,0.3,0.1,0.5,0.2c0.1,0,0.1,0,0.1,0c0,0,0.1,0,0.1,0c0.1,0.1,0.3,0.1,0.4,0.2
			C35.5,30.4,35.6,30.5,35.7,30.6L35.7,30.6c0.2,0,0.3,0.1,0.4,0.2L35.7,30.6z M33.9,29.8c0.1,0.1,0.2,0.1,0.2,0.1
			c0.1,0,0.2,0,0.2,0.1C34.2,29.9,34.1,29.9,33.9,29.8L33.9,29.8z M34.2,29.7c0.1,0.1,0.2,0.1,0.3,0.2c-0.1-0.1-0.2-0.1-0.3-0.1
			c-0.1,0-0.2,0-0.3-0.1c0,0,0-0.1,0.1-0.1c0,0,0-0.1,0.1-0.1L34.2,29.7z M34.4,53.3c0-0.1,0-0.2-0.1-0.2c-0.1,0-0.1,0.1-0.1,0.2v0
			c0,0.1,0,0.2,0.1,0.2C34.3,53.5,34.4,53.5,34.4,53.3L34.4,53.3z M34.1,29.5C34.2,29.5,34.2,29.5,34.1,29.5
			C34.2,29.4,34.2,29.4,34.1,29.5l1.1,0.4c0.2,0.1,0.3,0.1,0.5,0.2c0.2,0.1,0.3,0.2,0.5,0.2c-0.3-0.1-0.7-0.3-1-0.4
			C34.9,29.8,34.5,29.6,34.1,29.5z M37.1,30.7c-0.2-0.1-0.5-0.1-0.8-0.2c-0.1-0.1-0.3-0.1-0.5-0.1c-0.2,0-0.3-0.1-0.5-0.1
			c-0.1-0.1-0.2-0.1-0.2-0.1c-0.1,0-0.2,0-0.2-0.1c-0.3-0.1-0.5-0.3-0.6-0.4c0,0,0,0,0,0c0.4,0.2,0.8,0.3,1.2,0.5
			c0.4,0.2,0.8,0.3,1.2,0.4c0.1,0,0.1,0,0.2,0.1c0.1,0,0.1,0,0.2,0.1C36.9,30.6,37,30.7,37.1,30.7z M34.3,29.4
			C34.3,29.4,34.3,29.3,34.3,29.4c0-0.1,0.1-0.1,0.1-0.1l0.9,0.4c0.1,0,0.1,0,0.1,0.1c0,0,0.1,0,0.1,0.1c0.2,0.1,0.5,0.3,0.7,0.4
			c0.2,0.1,0.5,0.3,0.7,0.4l-1.6-0.7L34.3,29.4z M34.4,29.2c0.1,0.1,0.2,0.1,0.3,0.1c0.1,0,0.2,0.1,0.3,0.1c0.1,0.1,0.2,0.1,0.2,0.1
			c-0.1-0.1-0.3-0.1-0.4-0.2S34.5,29.3,34.4,29.2L34.4,29.2z M36.2,29.9c-0.2-0.1-0.4-0.2-0.6-0.2c-0.2-0.1-0.4-0.2-0.6-0.2
			c0.3,0.1,0.6,0.2,0.9,0.3c0.3,0.1,0.6,0.2,0.9,0.4L36.4,30C36.4,30,36.3,29.9,36.2,29.9z M35.7,30.5l0.1,0l0,0
			C35.8,30.5,35.8,30.5,35.7,30.5c0,0-0.1-0.1-0.1-0.1C35.6,30.5,35.6,30.5,35.7,30.5C35.7,30.5,35.7,30.5,35.7,30.5z M35.9,53.3
			c0-0.1,0-0.2-0.1-0.2c-0.1,0-0.1,0.1-0.1,0.2v0c0,0.1,0,0.2,0.1,0.2C35.8,53.5,35.9,53.5,35.9,53.3L35.9,53.3z M36,27.7
			c0.1-0.1,0-0.1,0-0.2c-0.1-0.1-0.1-0.1-0.2,0l0,0c-0.1,0.1-0.1,0.1,0,0.2C35.8,27.9,35.8,27.9,36,27.7L36,27.7z M37.8,30.9
			c-0.1-0.1-0.2-0.1-0.2-0.1c-0.1,0-0.2,0-0.2-0.1c-0.2-0.1-0.5-0.3-0.7-0.4c-0.2-0.2-0.5-0.3-0.7-0.4c0.1,0,0.1,0,0.1,0.1
			c0,0,0.1,0,0.1,0.1L37.8,30.9L37.8,30.9z M36.6,30.9c-0.1-0.1-0.2-0.1-0.3-0.2c-0.1-0.1-0.2-0.1-0.3-0.2c0.1,0.1,0.2,0.1,0.3,0.2
			C36.3,30.8,36.4,30.9,36.6,30.9z M37.6,31.1C37.6,31.2,37.6,31.2,37.6,31.1c0,0.1-0.1,0.1-0.1,0.1L36.9,31
			c-0.1-0.1-0.3-0.2-0.4-0.2c-0.1-0.1-0.3-0.1-0.4-0.2h0.1c0.2,0.1,0.5,0.2,0.7,0.3C37.2,31,37.4,31,37.6,31.1z M37.4,30.9
			c0.1,0,0.1,0,0.2,0.1c-0.2-0.1-0.3-0.1-0.5-0.2c-0.2-0.1-0.3-0.1-0.5-0.2C36.9,30.7,37.2,30.8,37.4,30.9z M38,30.8
			c-0.2-0.1-0.4-0.3-0.6-0.4c-0.2-0.1-0.4-0.2-0.6-0.3c0.1,0.1,0.3,0.1,0.4,0.1c0.1,0,0.3,0.1,0.4,0.1c0.1,0.1,0.3,0.1,0.5,0.2
			L38,30.8z M37.4,31.4c-0.1-0.1-0.1-0.1-0.2-0.2L37.4,31.4L37.4,31.4L37.4,31.4z M44.8,38.3c0-0.1,0-0.1-0.1-0.2
			c-0.1,0-0.2,0-0.2,0.1c-0.1,0.2-0.1,0.4-0.2,0.7c-0.1,0.2-0.1,0.4-0.2,0.7l-3.6,9.5c-0.1,0.2-0.2,0.4-0.3,0.6
			c-0.1,0.2-0.2,0.4-0.3,0.6c-0.1,0.1,0,0.1,0,0.2c0.1,0,0.2,0,0.2,0C42.2,46.6,43.8,42.5,44.8,38.3z M41.6,33L41.6,33v0.2L41.5,33
			C41.6,33,41.6,33,41.6,33z M41.9,29c0.1,0.1,0.2,0,0.2,0c0.1-0.1,0.1-0.1,0-0.2c0,0,0,0,0,0c0,0,0,0,0,0c-0.1-0.1-0.2,0-0.2,0
			C41.8,28.8,41.8,28.9,41.9,29L41.9,29z M45.5,43.5l0.4-1.4c-0.1,0.4-0.1,0.8-0.1,1.1c0,0.3,0,0.6-0.1,0.8c0,0.2,0,0.4,0,0.4
			c0,0.1,0,0.1-0.1,0.2c-0.1,0.1-0.1,0.2-0.2,0.3l-0.2,0.4l-0.7,0.8l-0.4,0.8c0,0,0,0.1,0,0.1c0,0,0,0.1,0,0.1l0,0.1h0h0
			c-0.1,0.1-0.1,0.1-0.2,0.2c-0.1,0.1-0.1,0.1-0.2,0.2v-0.1l-0.2,0.1l0.7-1.4l0.6-1L45.5,43.5z M43.6,29.7c-0.1,0-0.2,0-0.2,0.1
			c0,0.1,0.1,0.1,0.2,0.1c0.1,0,0.1,0,0.1-0.1C43.8,29.8,43.7,29.7,43.6,29.7z M43.8,30.6c-0.1,0-0.2,0-0.2,0.1
			c0,0.1,0.1,0.1,0.2,0.1h0.1c0.1,0,0.2,0,0.2-0.1C44.1,30.6,44,30.6,43.8,30.6L43.8,30.6z M44,47.5C44,47.4,44,47.4,44,47.5
			L44,47.5L44,47.5z M44.2,48.4c0.2-0.3,0.3-0.6,0.4-0.8c0.1,0,0.1,0,0.1,0c0,0,0,0,0.1,0c-0.1,0.1-0.2,0.3-0.2,0.4
			c-0.1,0.2-0.1,0.3-0.2,0.4c0,0-0.1,0-0.1,0C44.3,48.4,44.2,48.4,44.2,48.4z M44.9,36.5c0-0.1-0.1-0.1-0.2-0.1
			c-0.1,0-0.2,0-0.2,0.1v0.1c0,0.1,0.1,0.1,0.2,0.1C44.8,36.7,44.9,36.6,44.9,36.5L44.9,36.5z M45.2,35.6c0.1,0,0.2,0,0.2-0.1
			c0-0.1-0.1-0.1-0.2-0.1h0c-0.1,0-0.2,0-0.2,0.1C45,35.5,45,35.6,45.2,35.6L45.2,35.6z"/>
		<path class="st0" d="M51.5,33.8c-0.3-0.2-0.5-0.4-0.6-0.7c-0.1-0.2-0.2-0.4-0.3-0.5c-0.3-0.4-0.6-0.8-0.9-1.1
			c-0.3-0.4-0.6-0.8-0.9-1.1c-0.2-0.4-0.5-0.8-0.7-1.3c-0.1-0.3-0.1-0.7,0-1c0.1-0.3,0.3-0.6,0.6-0.8c0.3-0.2,0.6-0.3,1-0.3
			c0.4,0,0.7,0.1,1.1,0.3c0.4,0.2,0.7,0.5,1,0.8c0.4,0.4,0.9,0.9,1.3,1.3c0.4,0.4,0.8,0.9,1.2,1.4l2.7,3.2c0.3,0.4,0.6,0.8,0.9,1.1
			c0.3,0.3,0.6,0.7,0.9,1.1c-0.4,0.6-0.7,1.2-1,1.9c-0.3,0.6-0.6,1.3-0.9,2.1c-0.9-1.1-1.8-2.1-2.6-3.1c-0.9-1-1.8-2-2.6-3.1
			c0-0.1-0.1-0.1-0.1-0.1C51.6,33.9,51.6,33.9,51.5,33.8z M49.2,28.6c0.1,0,0.1,0,0.1-0.1s0-0.1-0.1-0.1h-0.1c-0.1,0-0.1,0-0.1,0.1
			S49,28.6,49.2,28.6L49.2,28.6z M49.2,28c0.1,0,0.2,0,0.2-0.1c0-0.1-0.1-0.1-0.2-0.1c-0.1,0-0.1,0-0.1,0.1C49.1,28,49.1,28,49.2,28
			z M50.3,28.5c0.1,0,0.2-0.1,0.1-0.2c0-0.1-0.1-0.1-0.2-0.1c-0.1,0-0.1,0-0.1,0c0,0-0.1,0-0.1,0c-0.1,0-0.2,0.1-0.1,0.2
			c0,0.1,0.1,0.1,0.2,0.1C50.2,28.5,50.3,28.5,50.3,28.5z M50.4,27.4c-0.1,0-0.1,0-0.1,0.1s0,0.1,0.1,0.1c0.1,0,0.2,0,0.2-0.1
			S50.5,27.4,50.4,27.4z M50.8,29.6c0-0.2,0-0.3-0.1-0.3c-0.1,0-0.1,0-0.2,0c0,0-0.1,0.1,0,0.2C50.5,29.5,50.6,29.6,50.8,29.6z
			 M54.4,38.6l-0.5-0.8c-0.2-0.1-0.3-0.3-0.3-0.4L53.2,37l-0.1-0.1c-0.1,0-0.1,0-0.1-0.1l-0.5-0.5l-0.1-0.1c0-0.1-0.1-0.1-0.1-0.1
			c0,0,0-0.1,0-0.1l-0.2-0.3c-0.2-0.1-0.4-0.3-0.5-0.7h0l0,0l0,0v-0.1l-0.8-0.6l-0.1-0.5l1,0.7l1,1.5l1,1.1l1.3,2l0.1,0.4l-0.5-0.5
			h0v0L54.4,38.6z M51.1,33.5L51.1,33.5L51.1,33.5z M51.7,34.8L51.7,34.8L51.7,34.8L51.7,34.8z M53.1,28.5L52.6,28v-0.5
			c0,0,0.1,0,0.1,0.1c0.1,0.1,0.1,0.2,0.2,0.2l0.2,0.3L53.1,28.5z M54,29.7L53.5,29l0.3-0.2l0.5,0.8l1.1,1l0.2,0.8l-0.1-0.1v0
			c-0.1-0.1-0.1-0.1-0.1-0.1c0,0-0.1-0.1-0.1-0.1l-0.3-0.3l-0.3-0.6L54.4,30C54.2,29.9,54.1,29.9,54,29.7L54,29.7z M66.5,26.1
			c0.2,0.1,0.3,0.2,0.4,0.3c0.2,0.1,0.2,0.3,0.2,0.5c0,0.5,0,0.9-0.1,1.4c-0.1,0.4-0.2,0.9-0.3,1.3c-0.5,1.7-1,3.4-1.6,5.1
			c-0.5,1.7-1.1,3.4-1.8,5c-0.1,0.2-0.2,0.5-0.3,0.7c-0.1,0.2-0.1,0.5-0.2,0.7c0,0,0,0,0,0c0,0,0,0,0,0c-0.1,0.2-0.1,0.3-0.2,0.5
			c-0.1,0.2-0.2,0.4-0.3,0.5c-0.1,0.2-0.3,0.5-0.4,0.7c-0.1,0.2-0.2,0.5-0.3,0.8h0c-0.1,0.2-0.2,0.5-0.3,0.7
			c-0.1,0.2-0.2,0.5-0.2,0.7c0,0.1-0.1,0.2-0.1,0.3l0.1,0c-0.5,1.1-1,2.2-1.5,3.2c-0.5,1.1-0.9,2.2-1.3,3.3
			c-0.1,0.3-0.2,0.6-0.3,0.9c-0.1,0.3-0.1,0.6-0.1,1c0,0.5-0.1,0.8-0.4,1.1c-0.3,0.3-0.6,0.4-1.1,0.5c-0.5,0.1-0.9,0-1.3-0.2
			c-0.3-0.2-0.6-0.6-0.7-1c-0.1-0.2-0.1-0.4-0.1-0.6c0-0.2,0-0.4,0-0.6c0.1-0.3,0.1-0.5,0.2-0.8c0.1-0.2,0.1-0.5,0.2-0.8
			c0.4-1.5,0.9-3.1,1.3-4.6c0.4-1.5,0.9-3,1.5-4.5c0.1-0.1,0.1-0.2,0.1-0.3c0-0.1,0.1-0.2,0.1-0.3v-0.1c0.2-0.8,0.5-1.6,0.8-2.4
			c0.3-0.8,0.6-1.5,0.9-2.3h0c0.1-0.1,0.1-0.3,0.2-0.4c0.1-0.1,0.2-0.3,0.2-0.4c0.3-0.9,0.7-1.8,1-2.7c0.3-0.9,0.7-1.8,1-2.7
			c0.4-1,0.8-2.1,1.2-3.1c0.1-0.2,0.2-0.4,0.3-0.6c0.1-0.2,0.2-0.4,0.4-0.5c0.3-0.4,0.7-0.6,1.2-0.7C65.6,25.6,66.1,25.7,66.5,26.1z
			 M55.2,47.5l0,0.2c0.1,0.2,0,0.5-0.2,0.7l0,0.3v-0.3l-0.1,0.1c0.1-0.2,0.1-0.3,0.1-0.4V48l0.1-0.4l0,0l0,0l0,0h0l0.2-1l0.2-0.3
			c0-0.1,0.1-0.1,0.2-0.2l0-0.1c0,0,0,0,0,0c0,0,0,0,0,0l0.1-0.2c0,0,0,0,0,0.1c0,0,0,0,0,0.1c0,0-0.1,0-0.1,0l-0.2,1l-0.2,0.3
			c0,0.1,0,0.1,0,0.1c0,0,0,0.1,0,0.1C55.5,47.4,55.4,47.5,55.2,47.5L55.2,47.5z M55.1,34.3c0,0.2,0,0.3,0.1,0.3c0.1,0,0.1,0,0.2,0
			c0,0,0.1-0.1,0-0.2C55.4,34.3,55.3,34.3,55.1,34.3z M55.5,31.4C55.5,31.4,55.5,31.4,55.5,31.4C55.5,31.3,55.5,31.3,55.5,31.4
			C55.5,31.4,55.5,31.4,55.5,31.4L55.5,31.4z M55.5,36.1c0,0.1,0,0.1,0.1,0.1c0.1,0,0.1,0,0.1-0.1v-0.2c0-0.1,0-0.1-0.1-0.1
			c-0.1,0-0.1,0-0.1,0.1V36.1z M56.1,54c0.1,0,0.1,0,0.1-0.1c0-0.1,0-0.1-0.1-0.1H56c-0.1,0-0.2,0-0.2,0.1
			C55.8,53.9,55.9,54,56.1,54L56.1,54z M56.3,52.8c0,0.1,0.1,0.1,0.2,0.1c0.1,0,0.2,0,0.2-0.1v-0.2c0-0.1-0.1-0.1-0.2-0.1
			c-0.1,0-0.2,0-0.2,0.1V52.8z M56.6,54.5c0.1,0,0.2,0,0.2-0.1c0-0.1-0.1-0.1-0.2-0.1c-0.1,0-0.2,0-0.2,0.1
			C56.5,54.5,56.5,54.5,56.6,54.5z M57,36.8c-0.1,0-0.2,0-0.2,0.1S56.9,37,57,37c0.1,0,0.2,0,0.2-0.1S57.1,36.8,57,36.8z M57.1,40.2
			c0.1-0.1,0.1-0.3,0.1-0.4c0-0.1,0.1-0.2,0.1-0.3c-0.1,0.1-0.1,0.3-0.1,0.4c0,0.1,0,0.3-0.1,0.4L57.1,40.2z M57.3,40.3
			c0.1-0.3,0.1-0.5,0.2-0.8c0.1-0.2,0.1-0.5,0.2-0.7c0.2-0.4,0.3-0.8,0.5-1.2c0.2-0.4,0.4-0.8,0.6-1.2c-0.3,0.7-0.6,1.4-0.9,2.1
			c-0.1,0.3-0.3,0.6-0.4,0.9C57.5,39.7,57.4,40,57.3,40.3z M58.1,38.5c0.1-0.2,0.2-0.4,0.2-0.5c0.1-0.2,0.2-0.3,0.2-0.5
			c0.1-0.2,0.2-0.4,0.2-0.5c0.1-0.2,0.2-0.3,0.2-0.5l0.1,0.1c-0.3,0.7-0.6,1.4-0.9,2.1c-0.3,0.7-0.5,1.4-0.8,2.1c0,0,0,0,0,0v0
			c0.1-0.4,0.2-0.7,0.3-1.1C57.8,39.2,57.9,38.8,58.1,38.5z M57.5,40.7c0.2-0.6,0.4-1.3,0.7-1.9c0.2-0.6,0.5-1.2,0.7-1.9l-0.6,1.7
			c-0.1,0.3-0.3,0.7-0.4,1C57.8,40,57.7,40.4,57.5,40.7z M57.7,54c0.1,0,0.2,0,0.2-0.1c0-0.1-0.1-0.1-0.2-0.1c-0.1,0-0.2,0-0.2,0.1
			C57.5,53.9,57.6,54,57.7,54z M57.6,40.8L57.6,40.8c0-0.2,0.1-0.4,0.1-0.6c0.1-0.2,0.1-0.4,0.2-0.5l-0.2,0.9L57.6,40.8z M58.8,54
			c0,0.1,0,0.3,0,0.4c0,0.1,0,0.2,0,0.3c0.1,0.4,0.1,0.6,0,0.7c-0.1,0.1-0.3,0.2-0.8,0.2h-0.5c0.2-0.3,0.4-0.6,0.6-0.8
			C58.4,54.6,58.6,54.3,58.8,54z M57.9,40.2l-0.2,0.6c0,0,0-0.1,0-0.1c0,0,0-0.1,0-0.1L57.9,40.2z M57.8,41L57.8,41l0.2-0.5
			C57.9,40.8,57.8,41,57.8,41L57.8,41z M58.9,37.9c0.1-0.2,0.2-0.4,0.2-0.6c0.1-0.2,0.2-0.4,0.2-0.6c0.1,0.1,0.1,0.1,0.2,0.1
			c-0.7,1.5-1.3,3-1.7,4.5v0c0.1-0.2,0.1-0.5,0.2-0.7c0.1-0.2,0.1-0.5,0.2-0.7l0.4-1.2L58.9,37.9z M58,40c0.1-0.2,0.1-0.4,0.2-0.6
			c0.1-0.2,0.1-0.4,0.2-0.6c0-0.1,0.1-0.3,0.2-0.5c-0.1,0.2-0.1,0.4-0.2,0.6c-0.1,0.2-0.1,0.4-0.2,0.6L58,40z M60.5,43.6
			c0-0.1,0-0.1-0.1-0.2c-0.1,0-0.2,0-0.2,0.1l-2.1,6.2c-0.1,0.1,0,0.1,0.1,0.2c0.1,0,0.2,0,0.2-0.1L60.5,43.6z M58.5,38.8
			c0.2-0.7,0.5-1.4,0.7-2.1L58.5,38.8L58.5,38.8z M59.2,36.6c-0.1,0.1-0.1,0.3-0.2,0.4c-0.1,0.1-0.1,0.2-0.2,0.4
			c0.1-0.1,0.1-0.3,0.1-0.4C59.1,36.9,59.1,36.7,59.2,36.6L59.2,36.6z M60.6,40.9c0.1-0.1,0-0.1,0-0.2c-0.1-0.1-0.1-0.1-0.2,0l0,0
			c-0.1,0.1-0.1,0.1,0,0.2C60.4,41,60.4,41,60.6,40.9L60.6,40.9z M60.8,42.5c0.1,0,0.1,0,0.1-0.1c0-0.1,0-0.1-0.1-0.1
			c-0.1,0-0.2,0-0.2,0.1C60.7,42.4,60.7,42.5,60.8,42.5z M61.5,44.6c0.1-0.2,0.2-0.4,0.2-0.5c-0.1,0.1-0.1,0.3-0.1,0.4
			c0,0.1-0.1,0.3-0.1,0.4c0,0-0.1,0-0.2,0.1C61.4,44.8,61.5,44.7,61.5,44.6z M65.4,28.1c0-0.1,0-0.1-0.1-0.2c-0.1,0-0.2,0-0.2,0.1
			c-0.6,1.8-1.1,3.5-1.7,5.3c-0.6,1.8-1.2,3.5-1.7,5.3c0,0.1,0,0.1,0.1,0.2c0.1,0,0.2,0,0.2-0.1c0.6-1.8,1.2-3.5,1.7-5.3
			C64.2,31.7,64.8,29.9,65.4,28.1z M62.4,43.2c-0.1,0.2-0.2,0.4-0.3,0.7c-0.1,0.2-0.2,0.4-0.3,0.7c0,0.1,0,0.1-0.1,0.1
			c0,0,0,0.1-0.1,0.1h0c0.1-0.3,0.3-0.6,0.4-0.8C62.1,43.7,62.2,43.5,62.4,43.2z M62.8,42.2c-0.2,0.3-0.4,0.7-0.6,1
			c-0.2,0.4-0.3,0.7-0.5,1.1c0.1-0.3,0.2-0.7,0.4-1c0.1-0.3,0.3-0.6,0.5-0.9v0c0.1-0.1,0.2-0.3,0.2-0.4c0.1-0.1,0.2-0.3,0.2-0.4
			l-0.1,0.2V42C62.9,42,62.8,42.1,62.8,42.2z M62.3,43.7c0,0.1-0.1,0.2-0.1,0.4c-0.1,0.1-0.1,0.3-0.2,0.4c-0.1,0.1-0.1,0.3-0.2,0.4
			h0c0-0.1,0.1-0.2,0.1-0.3c0.1-0.2,0.1-0.3,0.2-0.5C62.2,43.9,62.2,43.8,62.3,43.7z M61.8,43.7C61.8,43.6,61.9,43.6,61.8,43.7
			C61.9,43.6,61.9,43.6,61.8,43.7C61.8,43.7,61.8,43.7,61.8,43.7L61.8,43.7z M62.1,44.5L62.1,44.5C62,44.6,62,44.7,62,44.7
			c0,0.1,0,0.1,0,0.2c0,0-0.1,0-0.1,0C61.9,44.7,62,44.6,62.1,44.5z M63.1,41.2c-0.1,0.2-0.3,0.4-0.4,0.7c-0.1,0.2-0.2,0.4-0.3,0.7
			c-0.1,0.1-0.1,0.2-0.2,0.3c-0.1,0.1-0.1,0.2-0.2,0.3c0.1-0.2,0.2-0.3,0.2-0.5c0.1-0.2,0.2-0.3,0.2-0.5c0.1-0.2,0.2-0.3,0.2-0.5
			C62.9,41.5,62.9,41.3,63.1,41.2L63.1,41.2z M63.6,41.6c0.1,0.1,0.3,0.3,0.4,0.5c0.1,0.2,0.2,0.3,0.3,0.5c0.1,0.3,0.2,0.6,0.1,0.9
			c0,0.3-0.2,0.6-0.3,0.8c-0.2,0.2-0.4,0.4-0.7,0.5c-0.3,0.1-0.6,0.2-1,0.2c-0.2,0-0.3,0-0.4,0c0-0.1,0-0.2,0.1-0.4
			c0-0.1,0-0.1,0.1-0.2c0-0.1,0-0.2,0.1-0.2c0-0.1,0-0.1,0.1-0.1c0,0,0-0.1,0.1-0.1c0.1-0.1,0.2-0.3,0.2-0.4
			c0.1-0.1,0.1-0.3,0.2-0.4c0.1-0.1,0.1-0.2,0.2-0.3c0.1-0.1,0.1-0.2,0.2-0.4L63.6,41.6C63.5,41.6,63.5,41.6,63.6,41.6z M62.7,43
			c-0.1,0.1-0.1,0.3-0.2,0.4c-0.1,0.1-0.1,0.3-0.2,0.4c0.1-0.1,0.1-0.2,0.1-0.2l0.2-0.4v-0.1c0.3-0.5,0.6-1,0.9-1.6v0
			c-0.1,0.1-0.1,0.3-0.2,0.4c-0.1,0.1-0.1,0.2-0.2,0.4L62.7,43z M62.3,45.7c0.2-0.2,0.4-0.3,0.6-0.4c0.2,0,0.5-0.1,0.8-0.1
			c-0.1,0.1-0.3,0.2-0.4,0.3c-0.1,0.1-0.2,0.2-0.3,0.2l0,0c-0.1,0-0.2,0-0.3,0C62.6,45.8,62.5,45.8,62.3,45.7z M62.6,43
			c0,0,0,0.1,0,0.1c0,0-0.1,0.1-0.1,0.2C62.5,43.1,62.5,43,62.6,43z M63,42C63.1,41.9,63.1,41.9,63,42c0-0.1,0.1-0.1,0.1-0.2
			l0.2-0.4h0C63.3,41.6,63.2,41.8,63,42c0,0.2-0.1,0.4-0.2,0.5C62.8,42.3,62.9,42.2,63,42z M63.2,41.5
			C63.2,41.4,63.2,41.4,63.2,41.5c0-0.1,0-0.1,0-0.1C63.3,41.4,63.3,41.4,63.2,41.5C63.2,41.4,63.2,41.4,63.2,41.5z M65.8,34.8
			c0.1,0.3,0.1,0.5,0,0.7V36l-0.5,1.5l-0.3,1.3L64.1,40l0.5-1.6l0.3-0.6l0-1l0.5-1.2l0.4-1V34.8L65.8,34.8z M64.8,26.6
			c-0.1-0.1-0.2,0-0.2,0c-0.1,0.1-0.1,0.1,0,0.2c0,0,0,0,0,0s0,0,0,0c0.1,0.1,0.2,0.1,0.2,0C65,26.7,64.9,26.7,64.8,26.6
			C64.9,26.6,64.9,26.6,64.8,26.6C64.8,26.6,64.8,26.6,64.8,26.6z M65.5,27.6c0.1,0,0.2,0,0.2-0.1c0-0.1,0-0.2-0.1-0.2l-0.4-0.1
			c-0.1-0.1-0.1,0-0.2,0.1c0,0.1,0,0.2,0.1,0.2c0.1,0,0.1,0.1,0.2,0.1C65.4,27.6,65.4,27.6,65.5,27.6z M65.9,26.6
			c0.1,0,0.2,0,0.2-0.1c0-0.1-0.1-0.1-0.2-0.1c-0.1,0-0.2,0-0.2,0.1C65.7,26.6,65.7,26.6,65.9,26.6z M66.2,28.2c0.1,0,0.2,0,0.2-0.1
			c0-0.1-0.1-0.1-0.2-0.1c-0.1,0-0.2,0-0.2,0.1C66.1,28.1,66.1,28.2,66.2,28.2z M67.2,26.6C67.2,26.6,67.1,26.5,67.2,26.6L67.2,26.6
			z"/>
	</g>
</g>
</svg>
